# xmcd
#
# Track frame offsets:
#	150
#	11865
#	27825
#	41593
#	58128
#	72560
#	89065
#	98839
#	111985
#	130351
#	145149
#	158723
#	174732
#	195134
#	208764
#
# Disc length: 2981 seconds
#
# Revision: 1
# Processed by: cddbd v1.5.1PL0 Copyright (c) Steve Scherf et al.
# Submitted via: EasyCDDAExtractor 7.1.0.1
#
DISCID=dc0ba30f
DTITLE='t Westvlams Gemiengeld Vintekoor
DYEAR=1900
DGENRE=
TTITLE0=ol de bloatn zien bruun
TTITLE1=zes boomn
TTITLE2=rien ne va plus
TTITLE3=duw mor up joen fring
TTITLE4=28 daagn
TTITLE5=blèten is te loate nu
TTITLE6=iedereen et iemand nodig
TTITLE7=de zee
TTITLE8=snoepie
TTITLE9=e brieftje no mien meisje
TTITLE10=e liedje in 't schoon vlaams
TTITLE11=e nunne up e tunne
TTITLE12="2003 is me zien oar"
TTITLE13=nooit mi te loate thuuskomn
TTITLE14=chards in tomatesause
EXTD=
EXTT0=
EXTT1=
EXTT2=
EXTT3=
EXTT4=
EXTT5=
EXTT6=
EXTT7=
EXTT8=
EXTT9=
EXTT10=
EXTT11=
EXTT12=
EXTT13=
EXTT14=
PLAYORDER=
